<svg width="107" height="24" viewBox="0 0 107 24" fill="none" xmlns="http://www.w3.org/2000/svg">
<path d="M0 23.6162V0.767412H6.99415C12.0513 0.767412 14.5798 2.74416 14.5798 6.69764C14.5798 7.97671 14.2551 9.08137 13.6055 10.0116C12.956 10.9418 12.0745 11.5232 10.961 11.7558C12.2601 11.9418 13.2692 12.5116 13.9883 13.4651C14.7306 14.3953 15.1134 15.6162 15.1366 17.1279C15.1366 21.4535 12.318 23.6162 6.68098 23.6162H0ZM7.20293 20.4767C8.73398 20.4767 9.82428 20.1395 10.4738 19.4651C11.1234 18.7907 11.4481 17.8953 11.4481 16.779C11.4481 15.6395 11.0886 14.8139 10.3694 14.3023C9.6735 13.7907 8.56 13.5349 7.02894 13.5349H3.61886V20.4767H7.20293ZM11.0306 6.97671C11.0306 4.9302 9.76629 3.90695 7.23772 3.90695H3.61886V10.3953H6.95935C9.6735 10.3953 11.0306 9.25578 11.0306 6.97671Z" fill="#000228"/>
<path d="M17.5376 15.3488C17.5376 12.5349 18.1639 10.4069 19.4166 8.96509C20.6693 7.49997 22.4091 6.76741 24.6361 6.76741C26.8631 6.76741 28.5797 7.4302 29.786 8.75578C31.0155 10.0581 31.6534 11.9767 31.6998 14.5116L31.5607 17.093H21.4C21.6088 19.6046 22.8615 20.8604 25.158 20.8604C26.7587 20.8604 28.4521 20.5697 30.2384 19.9883L30.9691 23.0232C30.2268 23.279 29.2641 23.5 28.081 23.686C26.8979 23.8953 25.9236 24 25.158 24C20.0777 24 17.5376 21.1162 17.5376 15.3488ZM24.7753 10.0116C23.685 10.0116 22.8615 10.3372 22.3047 10.9883C21.7712 11.6162 21.4696 12.6744 21.4 14.1628H27.8374C27.8374 11.3953 26.8167 10.0116 24.7753 10.0116Z" fill="#000228"/>
<path d="M34.0312 22.8488L34.7967 19.6744C37.0005 20.3721 38.752 20.7209 40.0511 20.7209C41.3501 20.7209 42.2317 20.593 42.6956 20.3372C43.1596 20.1046 43.3915 19.686 43.3915 19.0814C43.3915 18.4767 43.1828 18.0465 42.7652 17.7907C42.3476 17.5349 41.5589 17.2674 40.399 16.9883C38.1024 16.4302 36.5018 15.8139 35.5971 15.1395C34.6924 14.4418 34.24 13.3139 34.24 11.7558C34.24 8.4302 36.3742 6.76741 40.6426 6.76741C42.4752 6.76741 44.5978 7.06974 47.0104 7.67439L46.3493 10.9883C44.0527 10.3372 42.2781 10.0116 41.0254 10.0116C39.7727 10.0116 38.926 10.1279 38.4852 10.3604C38.0676 10.5697 37.8589 10.9418 37.8589 11.4767C37.8589 12.0116 38.0676 12.4069 38.4852 12.6628C38.926 12.8953 40.0395 13.2558 41.8257 13.7442C43.6119 14.2325 44.9226 14.8023 45.7577 15.4535C46.5928 16.0814 47.0104 17.1628 47.0104 18.6976C47.0104 22.2093 44.853 23.9651 40.5382 23.9651C38.52 23.9651 36.351 23.593 34.0312 22.8488Z" fill="#000228"/>
<path d="M53.2738 7.04648L53.3434 8.05811C55.2224 7.19764 56.6955 6.76741 57.7626 6.76741C59.6416 6.76741 61.0219 7.32555 61.9034 8.44183C62.8081 9.53485 63.2605 11.2558 63.2605 13.6046V23.6162H59.6764V13.7093C59.6764 12.593 59.4792 11.7209 59.0849 11.093C58.6905 10.4651 58.0758 10.1511 57.2407 10.1511C56.4055 10.1511 55.1181 10.5581 53.3782 11.3721V23.6162H49.7941V7.04648H53.2738Z" fill="#000228"/>
<path d="M65.9746 23.6162V20.4069H71.1594V10.2558H66.253V7.04648H74.7434V20.4069H79.6498V23.6162H65.9746ZM72.76 4.6395C72.0641 4.6395 71.5073 4.4302 71.0898 4.0116C70.6954 3.56974 70.4982 2.99997 70.4982 2.3023C70.4982 1.60462 70.707 1.04648 71.1246 0.627877C71.5421 0.209272 72.0989 -3.05176e-05 72.7948 -3.05176e-05C73.5139 -3.05176e-05 74.0591 0.209272 74.4302 0.627877C74.8246 1.02323 75.0218 1.58137 75.0218 2.3023C75.0218 3.02323 74.8246 3.59299 74.4302 4.0116C74.0359 4.4302 73.4791 4.6395 72.76 4.6395Z" fill="#000228"/>
<path d="M82.5379 23.6162V0.418575H86.122V13.7093L88.4185 13.4651C89.7176 11.7907 90.8543 9.97671 91.8286 8.02323L92.3158 7.04648H96.213C94.7516 10.1395 93.1277 12.7209 91.3415 14.7907C92.8261 16.9069 94.3224 19.4069 95.8302 22.2907L96.5262 23.6162H92.455C91.3183 21.1511 90.0192 18.7907 88.5577 16.5349L86.122 16.779V23.6162H82.5379Z" fill="#000228"/>
<path d="M101.954 23.6162V18.5581H107V23.6162H101.954Z" fill="#000228"/>
</svg>
